<svg xmlns="http://www.w3.org/2000/svg" viewBox="544.5 256.5 176.5 72.5" width="176.5" height="72.5" role="img" aria-label="La Costa Park"><path fill="#FFFFFF" d="M646.17 292.09C646.16 292.95 645.98 293.57 645.63 293.95C645.38 294.22 645.1 294.36 644.8 294.36C644.66 294.36 644.52 294.33 644.37 294.29C643.87 294.12 643.43 293.69 643.05 292.99C642.23 291.53 641.08 290.79 639.59 290.79C638.1 290.79 636.95 291.48 636.15 292.86C635.35 294.23 634.96 296 634.96 298.17C634.96 300.35 635.46 302.08 636.48 303.36C637.49 304.65 638.95 305.29 640.84 305.29C641.95 305.29 643.1 304.92 644.28 304.16C644.96 303.73 645.44 303.51 645.74 303.51C646.04 303.51 646.19 303.64 646.19 303.88L646.19 304.18C646.19 304.8 645.54 305.48 644.25 306.23C642.95 306.98 641.63 307.35 640.27 307.35L639.84 307.35C637.19 307.35 635.1 306.54 633.58 304.9C632.06 303.27 631.3 301.14 631.3 298.51C631.3 295.88 632.03 293.7 633.49 291.98C634.23 291.1 635.19 290.4 636.38 289.87C637.56 289.33 638.79 289.07 640.08 289.07L640.51 289.07C642.4 289.07 643.93 289.43 645.09 290.14C645.81 290.59 646.17 291.24 646.17 292.09"/><path fill="#FFFFFF" d="M657.24 306.16L657.68 306.16C659.31 306.16 660.6 305.43 661.55 303.97C662.49 302.49 662.96 300.63 662.96 298.37L662.96 298.12C662.96 295.62 662.45 293.61 661.45 292.12C660.44 290.62 659.1 289.87 657.41 289.87C655.73 289.87 654.38 290.59 653.38 292.04C652.97 292.63 652.63 293.42 652.36 294.41C652.09 295.4 651.95 296.49 651.95 297.66L651.95 297.9C651.95 300.23 652.4 302.13 653.3 303.6C653.76 304.37 654.35 304.98 655.06 305.46C655.77 305.93 656.49 306.16 657.24 306.16M666.1 298.05C666.1 299.32 665.88 300.56 665.44 301.77C664.55 304.21 663 305.87 660.79 306.76C659.75 307.18 658.72 307.39 657.69 307.39L657.1 307.39C654.82 307.39 652.89 306.55 651.33 304.88C650.68 304.18 650.14 303.25 649.7 302.06C649.27 300.88 649.05 299.71 649.05 298.56L649.05 297.94C649.05 296.65 649.27 295.4 649.71 294.21C650.57 291.89 652.03 290.28 654.08 289.4C655.19 288.91 656.4 288.67 657.71 288.67L658.01 288.67C659.15 288.67 660.25 288.9 661.29 289.35C663.39 290.24 664.84 291.98 665.63 294.57C665.95 295.58 666.1 296.63 666.1 297.74L666.1 298.05"/><path fill="#FFFFFF" d="M682.65 301.95L682.65 302.45C682.65 303.06 682.49 303.69 682.17 304.36C681.85 305.02 681.36 305.58 680.7 306.04C679.48 306.9 677.97 307.34 676.17 307.34L675.67 307.34C673.34 307.34 671.57 307.01 670.34 306.37C669.76 306.06 669.47 305.32 669.47 304.14L669.47 303.7C669.47 302.42 669.81 301.79 670.49 301.79C670.81 301.79 671.23 302.22 671.75 303.09C672.27 303.97 672.72 304.55 673.09 304.85C673.83 305.44 674.8 305.74 676 305.74C677.2 305.74 678.09 305.48 678.65 304.96C679.21 304.44 679.49 303.79 679.49 303.02C679.49 302.25 679.11 301.56 678.34 300.97C677.87 300.61 676.72 300.04 674.88 299.25C673.04 298.47 671.75 297.69 671 296.91C670.25 296.14 669.88 295.08 669.88 293.75C669.88 292.41 670.45 291.28 671.6 290.37C672.76 289.45 674.22 288.99 675.99 288.99L676.49 288.99C678.79 288.99 680.39 289.29 681.3 289.87C681.7 290.13 681.91 290.76 681.91 291.76C681.91 293.22 681.54 293.95 680.81 293.95C680.57 293.95 680.2 293.57 679.72 292.82C679.23 292.06 678.74 291.51 678.22 291.15C677.71 290.79 676.97 290.61 676 290.61C675.02 290.61 674.27 290.83 673.73 291.28C673.19 291.72 672.92 292.33 672.92 293.1C672.92 293.86 673.36 294.55 674.22 295.14C674.72 295.47 675.79 295.98 677.44 296.65C679.1 297.33 680.31 298 681.09 298.69C682.13 299.59 682.65 300.68 682.65 301.95"/><path fill="#FFFFFF" d="M689.22 306.42C689.22 306.22 689.51 305.97 690.09 305.68C690.67 305.38 691.03 304.89 691.16 304.21C691.29 303.53 691.35 301.29 691.35 297.5C691.35 293.71 691.28 291.6 691.14 291.17C691 290.73 690.47 290.52 689.56 290.52C688.65 290.52 687.99 290.63 687.59 290.85C687.18 291.08 686.84 291.41 686.56 291.84C685.99 292.73 685.65 293.17 685.56 293.17C685.15 293.17 684.95 292.92 684.95 292.41L684.95 292.02C684.95 290.25 685.15 289.26 685.56 289.05C685.71 288.97 687.98 288.93 692.34 288.93L697.68 288.94C697.97 288.94 698.26 288.94 698.55 288.93L699.41 288.91C699.85 288.91 700.15 289.01 700.29 289.23C700.53 289.59 700.65 290.48 700.65 291.91C700.65 292.64 700.53 293.01 700.29 293.01C699.97 293.01 699.63 292.7 699.27 292.08C698.9 291.46 698.51 291.04 698.1 290.81C697.68 290.58 697.01 290.47 696.07 290.47C695.14 290.47 694.58 290.68 694.41 291.1C694.25 291.53 694.16 293.74 694.16 297.75C694.16 301.76 694.21 304.01 694.3 304.5C694.4 304.99 694.6 305.37 694.91 305.63C695.01 305.71 695.24 305.83 695.6 306.01C695.96 306.18 696.14 306.34 696.14 306.49C696.14 306.86 695.84 307.05 695.24 307.05L694.38 307.05L691.83 307C690.09 307 689.22 306.8 689.22 306.42"/><path fill="#FFFFFF" d="M712.26 298.02C712.05 298.05 711.87 298.07 711.7 298.07C709.97 298.07 708.54 298.5 707.44 299.35C706.32 300.22 705.76 301.2 705.76 302.25L705.76 302.9C705.79 303.09 705.8 303.2 705.8 303.29C705.8 304.01 706.11 304.62 706.74 305.11C707.34 305.58 707.96 305.82 708.57 305.82L709.19 305.82C710.1 305.82 711.13 305.42 712.24 304.64C713.1 304.04 713.54 303.26 713.54 302.33C713.56 302.2 713.58 302.07 713.58 301.98L713.61 301.51L713.62 300.89L713.63 300.54L713.64 299.2C713.64 298.13 713.05 298.01 712.8 298.01L712.29 298.01L712.26 298.02M706.86 307.34C705.72 307.34 704.78 306.94 704 306.14C703.21 305.33 702.83 304.49 702.83 303.56L702.83 303.08C702.83 301.56 703.39 300.37 704.53 299.46C705.33 298.82 706.5 298.29 708.01 297.87C708.13 297.83 708.59 297.72 710.1 297.4C711.79 297.04 712.24 296.88 712.43 296.79C713.25 296.38 713.67 295.52 713.67 294.23C713.67 292.99 713.33 291.98 712.64 291.25C711.95 290.51 711 290.14 709.82 290.14C708.62 290.14 707.57 290.79 706.7 292.07C705.96 293.16 705.21 293.71 704.46 293.71C704.44 293.71 704.3 293.7 703.96 293.38C703.74 293.17 703.62 292.8 703.62 292.3C703.62 291.48 704.06 290.83 704.96 290.3C706.52 289.37 708.24 288.9 710.07 288.9L710.55 288.9C713.09 288.9 714.84 289.67 715.76 291.18C716.33 292.12 716.62 294.41 716.62 297.97C716.62 302.85 716.71 303.78 716.78 304.04C716.98 304.72 717.42 305.18 718.09 305.41C718.84 305.67 719.14 305.82 719.25 305.88L719.25 306.04C719.25 306.04 719.23 306.24 718.53 306.65C718 306.97 717.17 307.12 716.09 307.12C715.51 307.12 715 306.87 714.53 306.36C713.77 305.54 713.46 305.38 713.22 305.38C713.13 305.38 713.13 305.38 710.95 306.39C709.59 307.02 708.52 307.34 707.76 307.34L706.86 307.34"/><path fill="#FFFFFF" d="M635.86 313.56L635.86 317.12C635.86 317.65 635.93 317.97 636.06 318.08C636.2 318.19 636.48 318.25 636.91 318.25L637.38 318.25C638.27 318.25 638.99 317.99 639.55 317.47C640.11 316.95 640.39 316.22 640.39 315.27L640.39 315.17L640.39 315.07C640.39 314.15 640.12 313.43 639.6 312.91C639.07 312.38 638.38 312.12 637.51 312.12L637.33 312.1L636.87 312.1C636.42 312.1 636.13 312.17 636.02 312.32C635.92 312.46 635.86 312.87 635.86 313.56M635.86 320.97C635.86 321.93 635.91 322.54 636.02 322.8C636.12 323.05 636.36 323.26 636.74 323.44C637.12 323.61 637.31 323.78 637.31 323.96C637.31 324.18 636.9 324.3 636.08 324.3L635.83 324.29L633.96 324.3L633.74 324.3C632.93 324.3 632.53 324.18 632.53 323.94C632.53 323.7 632.71 323.5 633.08 323.34C633.45 323.18 633.67 322.97 633.74 322.7C633.81 322.42 633.84 320.85 633.84 317.98C633.84 315.11 633.8 313.47 633.73 313.06C633.65 312.65 633.49 312.39 633.23 312.28C632.81 312.09 632.6 311.94 632.6 311.82C632.6 311.62 632.69 311.49 632.87 311.43C633.14 311.35 633.77 311.3 634.76 311.3L635.75 311.27C636.41 311.24 636.75 311.23 636.75 311.23L637.26 311.21L638.03 311.21C638.79 311.21 639.45 311.31 640.03 311.5C641.12 311.87 641.84 312.48 642.17 313.32C642.36 313.82 642.46 314.37 642.46 314.98C642.46 316.32 641.9 317.34 640.78 318.02C639.99 318.51 638.81 318.82 637.25 318.93C636.68 318.98 636.34 319.05 636.24 319.15C635.99 319.39 635.86 320 635.86 320.97"/><path fill="#FFFFFF" d="M650.12 318.82L650.12 318.71C650.12 318.3 649.59 316.76 648.52 314.1C648.37 313.73 648.28 313.54 648.25 313.54C648.23 313.54 647.9 314.38 647.27 316.05C646.64 317.73 646.32 318.64 646.32 318.79C646.32 318.9 646.63 318.95 647.23 318.95L648.84 318.95C649.69 318.95 650.12 318.91 650.12 318.82M642.24 323.87C642.24 323.75 642.43 323.57 642.81 323.33C643.19 323.09 643.48 322.74 643.69 322.28C643.69 322.26 643.91 321.71 644.33 320.62C644.74 319.53 645.21 318.4 645.71 317.2C646.21 316.01 646.54 315.18 646.7 314.72C646.86 314.26 647.03 313.72 647.23 313.1C647.42 312.47 647.56 312.09 647.64 311.95C647.89 311.53 648.23 311.31 648.65 311.31C648.8 311.31 648.95 311.37 649.1 311.48C649.57 311.83 650.12 312.91 650.74 314.72C650.98 315.43 651.5 316.85 652.29 318.97C653.07 321.09 653.54 322.31 653.69 322.62C653.84 322.94 654.04 323.17 654.29 323.31C654.81 323.6 655.06 323.82 655.06 323.96C655.06 324.2 654.58 324.32 653.62 324.32L652.51 324.32C651.42 324.32 650.87 324.21 650.87 323.99C650.87 323.84 650.97 323.65 651.18 323.43C651.38 323.2 651.49 322.98 651.49 322.74C651.49 322.51 651.36 322.08 651.12 321.46C650.87 320.83 650.69 320.44 650.57 320.28C650.35 319.98 649.89 319.83 649.19 319.83L648.64 319.81C648.46 319.8 648.18 319.8 647.81 319.8C646.8 319.8 646.2 319.88 646.01 320.05C645.81 320.21 645.58 320.64 645.31 321.33C645.04 322.03 644.91 322.5 644.91 322.75C644.91 323 645.04 323.24 645.3 323.49C645.56 323.73 645.69 323.88 645.69 323.92C645.69 324.14 645.38 324.25 644.77 324.25C643.08 324.25 642.24 324.12 642.24 323.87"/><path fill="#FFFFFF" d="M672.02 320.53C672.02 321.51 672.05 322.17 672.12 322.52C672.19 322.86 672.34 323.14 672.58 323.37C672.81 323.59 672.93 323.79 672.93 323.97C672.93 324.24 672.03 324.37 670.22 324.37C669.17 324.37 668.64 324.25 668.64 324.02C668.64 323.87 668.81 323.68 669.14 323.46C669.48 323.23 669.69 322.89 669.79 322.44C669.89 321.98 669.94 320.45 669.94 317.85C669.94 315.24 669.9 313.72 669.82 313.28C669.73 312.84 669.56 312.52 669.31 312.33C668.86 311.98 668.64 311.78 668.64 311.75C668.64 311.43 669.09 311.27 669.99 311.27L671.7 311.27C672.49 311.27 672.88 311.41 672.88 311.71C672.88 311.76 672.79 311.91 672.59 312.16C672.4 312.42 672.27 312.76 672.2 313.2C672.13 313.64 672.09 314.68 672.09 316.32C672.09 316.88 672.24 317.16 672.53 317.16C672.6 317.16 672.79 317.04 673.1 316.81C673.83 316.26 674.69 315.34 675.69 314.06C676.24 313.35 676.52 312.74 676.52 312.24L676.47 311.78C676.47 311.59 676.57 311.47 676.78 311.41C676.98 311.34 677.51 311.31 678.36 311.31C679.21 311.31 679.64 311.42 679.64 311.62C679.64 311.7 679.19 312.09 678.29 312.77C677.84 313.11 677.15 313.79 676.24 314.83C675.32 315.87 674.86 316.62 674.86 317.08C674.86 317.4 675.97 318.96 678.19 321.76C678.66 322.35 679.04 322.76 679.32 323C680.04 323.6 680.4 323.92 680.4 323.97C680.4 324.24 679.84 324.38 678.72 324.38L678.31 324.38C677.75 324.38 677.33 324.24 677.06 323.97C676.96 323.87 676.84 323.65 676.7 323.3C676.55 322.94 676.26 322.43 675.82 321.75C674.37 319.52 673.38 318.41 672.83 318.41C672.29 318.41 672.02 319.12 672.02 320.53"/><path fill="#FFFFFF" d="M659.35 324.37L658.78 324.34L657.9 324.33C656.6 324.33 656.53 324.07 656.53 324.06C656.53 324.06 656.57 323.92 657.05 323.64C657.56 323.35 657.9 322.96 658.07 322.48C658.18 322.19 658.31 321.44 658.31 318.22C658.31 315.81 658.24 314.38 658.09 313.87C657.92 313.31 657.59 312.88 657.1 312.59C656.74 312.38 656.65 312.25 656.62 312.19C656.63 312.19 656.66 312.16 656.7 312.13C657.19 311.77 658.1 311.59 659.41 311.59C659.99 311.59 660.18 311.84 660.27 312.03C660.79 313.13 660.92 313.23 661.14 313.23C661.42 313.23 661.74 313.09 662.12 312.79C663.07 312.03 664.05 311.65 665.04 311.65C665.35 311.65 665.62 311.77 665.87 312.04C666.13 312.3 666.25 312.59 666.25 312.92C666.25 313.25 666.17 313.5 666.01 313.68C665.85 313.86 665.67 313.94 665.44 313.94C665.19 313.94 664.89 313.82 664.54 313.6C664.09 313.3 663.65 313.15 663.23 313.15C662.27 313.15 661.5 313.83 660.95 315.18C660.63 315.97 660.47 317.24 660.47 319.05C660.47 321.48 660.67 322.14 660.82 322.43C661.05 322.88 661.45 323.26 662.01 323.54C662.28 323.69 662.6 323.91 662.61 324.17C662.61 324.17 662.61 324.17 662.6 324.17C662.58 324.17 662.31 324.37 660.84 324.37L659.35 324.37"/><path fill="#FFFFFF" d="M635.01 271.71C634.65 271.59 634.48 271.43 634.48 271.22C634.48 271 634.73 270.9 635.25 270.9L635.79 270.9L636.07 270.91L636.9 270.91C638.02 270.91 638.7 270.94 638.93 270.99C639.16 271.05 639.27 271.17 639.27 271.35C639.27 271.47 639.09 271.63 638.71 271.81C638.34 271.99 638.12 272.25 638.06 272.57C637.91 273.24 637.84 274.98 637.84 277.8C637.84 280.61 637.9 282.11 638.01 282.3C638.17 282.58 638.79 282.72 639.88 282.72C640.96 282.72 641.69 282.63 642.05 282.46C642.41 282.29 642.77 281.93 643.11 281.38C643.46 280.83 643.71 280.56 643.85 280.56C644.08 280.56 644.19 280.75 644.19 281.13C644.19 282.47 644.02 283.28 643.67 283.58C643.46 283.76 642.43 283.85 640.58 283.85L639.75 283.85L639.47 283.84L638.93 283.84C635.96 283.84 634.48 283.72 634.48 283.47C634.48 283.31 634.64 283.13 634.96 282.94C635.29 282.75 635.51 282.46 635.62 282.08C635.73 281.7 635.78 280.48 635.78 278.43L635.82 274.52C635.82 273.17 635.78 272.39 635.68 272.19C635.59 271.98 635.37 271.82 635.01 271.71"/><path fill="#FFFFFF" d="M653.21 277.44C653.06 277.47 652.93 277.48 652.81 277.48C651.57 277.48 650.55 277.79 649.77 278.4C648.97 279.02 648.57 279.71 648.57 280.47L648.57 280.93C648.59 281.07 648.59 281.14 648.59 281.21C648.59 281.72 648.82 282.16 649.27 282.51C649.7 282.84 650.14 283.01 650.58 283.01L651.02 283.01C651.67 283.01 652.4 282.73 653.2 282.17C653.81 281.74 654.12 281.19 654.12 280.52C654.14 280.43 654.15 280.34 654.15 280.27L654.18 279.93L654.18 279.49L654.19 279.24L654.19 278.28C654.19 277.52 653.78 277.44 653.6 277.44L653.23 277.44L653.21 277.44M649.35 284.1C648.54 284.1 647.87 283.82 647.31 283.24C646.75 282.67 646.48 282.06 646.48 281.4L646.48 281.06C646.48 279.97 646.87 279.12 647.69 278.47C648.26 278.02 649.09 277.63 650.17 277.33C650.26 277.31 650.59 277.23 651.67 277C652.87 276.74 653.19 276.63 653.33 276.56C653.92 276.27 654.22 275.66 654.22 274.73C654.22 273.85 653.97 273.13 653.48 272.61C652.99 272.08 652.31 271.81 651.47 271.81C650.61 271.81 649.86 272.28 649.24 273.19C648.71 273.97 648.17 274.36 647.64 274.36C647.63 274.36 647.52 274.36 647.28 274.13C647.12 273.98 647.04 273.71 647.04 273.35C647.04 272.77 647.35 272.3 647.99 271.93C649.11 271.27 650.34 270.93 651.65 270.93L651.99 270.93C653.8 270.93 655.06 271.48 655.71 272.56C656.12 273.23 656.32 274.86 656.32 277.4C656.32 280.89 656.39 281.55 656.44 281.74C656.58 282.23 656.9 282.56 657.38 282.72C657.91 282.91 658.12 283.01 658.2 283.06L658.2 283.17C658.2 283.17 658.19 283.32 657.69 283.61C657.31 283.83 656.72 283.95 655.94 283.95C655.53 283.95 655.17 283.77 654.83 283.4C654.29 282.82 654.07 282.7 653.9 282.7C653.83 282.7 653.83 282.7 652.27 283.42C651.3 283.87 650.54 284.1 650 284.1L649.35 284.1"/><clipPath id="lcp_lockup_blanco_c"><path d="M585.81 268.67C585.75 268.69 585.67 268.68 585.6 268.68C584.95 268.63 584.29 268.53 583.63 268.54C581.58 268.58 579.52 268.68 577.46 268.73C576.97 268.74 576.48 268.74 575.99 268.73C575.26 268.73 574.53 268.72 573.81 268.77C572.18 268.87 570.57 269.08 568.95 269.25C568.15 269.33 567.36 269.39 566.56 269.49C565.44 269.61 564.32 269.77 563.19 269.89C563.01 269.91 562.83 269.91 562.65 269.91C562.48 269.91 562.32 269.9 562.15 269.92C561.07 270.01 559.99 270.12 558.91 270.23C558.34 270.29 557.76 270.31 557.2 270.42C556.17 270.63 555.16 270.96 554.13 271.1C552.42 271.33 551.01 272.05 549.86 273.3C549.78 273.39 549.73 273.5 549.7 273.61C549.56 274.09 549.44 274.57 549.29 275.05C549.03 275.84 548.66 276.6 548.5 277.41C548.27 278.59 548.15 279.8 548.04 281C547.97 281.74 548.03 282.49 548.02 283.24C548.01 283.84 548.02 284.44 547.95 285.03C547.86 285.74 547.67 286.44 547.59 287.15C547.46 288.22 547.38 289.28 547.3 290.35C547.27 290.89 547.31 291.44 547.29 291.98C547.28 292.2 547.23 292.42 547.2 292.64C547.15 292.93 547.01 293.25 547.09 293.5C547.24 293.93 547.12 294.33 547.12 294.74C547.13 295.31 547.23 295.88 547.26 296.46C547.28 296.73 547.16 297.02 547.21 297.28C547.37 298.25 547.64 299.19 547.48 300.19C547.42 300.56 547.44 300.95 547.47 301.33C547.57 302.58 547.71 303.83 547.8 305.09C547.85 305.88 547.82 306.67 547.86 307.46C547.9 308.45 547.97 309.43 548.02 310.42C548.05 310.91 548.04 311.4 548.06 311.9C548.15 313.58 548.25 315.27 548.33 316.96C548.34 317.29 548.17 317.65 548.26 317.94C548.57 319 548.35 320.18 549.04 321.18C549.35 321.63 549.4 322.27 549.59 322.82C549.62 322.92 549.71 323.03 549.8 323.1C550.4 323.6 550.98 324.12 551.61 324.57C552.35 325.1 553.02 325.82 554.06 325.71C554.12 325.7 554.19 325.74 554.26 325.76C554.92 325.94 555.58 326.19 556.25 326.28C557.42 326.44 558.6 326.54 559.78 326.59C561.88 326.67 563.99 326.72 566.1 326.74C567.24 326.75 568.38 326.75 569.52 326.74C570.44 326.73 571.36 326.73 572.27 326.73C576.6 326.75 580.93 326.86 585.25 326.33C587.41 326.07 589.6 326.02 591.78 325.89C592.67 325.83 593.55 325.79 594.44 325.76C595.84 325.71 597.25 325.72 598.65 325.63C599.48 325.58 600.3 325.4 601.12 325.27C601.12 325.29 601.12 325.3 601.12 325.3C601.23 325.3 601.33 325.3 601.43 325.27C602.21 325.07 603.03 324.95 603.77 324.63C604.42 324.34 605.01 323.88 605.56 323.41C606.25 322.84 606.34 321.93 606.4 321.16C606.51 319.79 607.02 318.5 606.92 317.08C606.83 315.64 607.06 314.19 607.07 312.74C607.1 309.21 607.06 305.68 607.09 302.15C607.11 300.67 607.25 299.19 607.28 297.71C607.32 295.8 607.29 293.89 607.31 291.97C607.33 290.34 607.41 288.71 607.38 287.08C607.34 285.61 607.19 284.14 607.08 282.67C606.99 281.47 606.85 280.27 606.78 279.07C606.72 278.06 606.75 277.03 606.67 276.02C606.63 275.45 606.56 274.84 606.33 274.33C606.05 273.73 605.6 273.21 605.21 272.66C604.47 271.6 603.44 270.91 602.26 270.49C601.55 270.24 600.76 270.23 600 270.11C599.21 269.99 598.41 269.87 597.62 269.74C596.86 269.62 596.1 269.45 595.34 269.36C593.65 269.14 591.96 268.95 590.27 268.76C589.77 268.7 589.27 268.64 588.77 268.62C588.61 268.61 588.45 268.62 588.29 268.63C588.06 268.65 587.82 268.66 587.6 268.62C587.3 268.56 587.02 268.52 586.73 268.52C586.42 268.52 586.12 268.57 585.81 268.67Z"/></clipPath><g clip-path="url(#lcp_lockup_blanco_c)"><path fill="#FFFFFF" d="M565.82 326.74C564.89 326.46 563.96 326.2 563.03 325.92C560.99 325.32 558.89 324.85 556.91 324.08C554.88 323.3 552.96 322.24 551.01 321.25C550.44 320.96 549.94 320.52 549.41 320.13C548.54 319.49 547.67 318.85 546.83 318.18C546.63 318.02 546.45 317.7 546.46 317.46C546.5 314.99 546.43 312.54 546.7 310.07C547.07 306.61 547.03 303.13 546.63 299.64C546.36 297.29 546.44 294.9 546.37 292.53C546.43 292.51 546.49 292.49 546.56 292.47C546.76 292.82 546.96 293.17 547.17 293.51C547.45 293.95 547.74 294.37 548.02 294.8C549.27 296.83 550.44 298.91 551.81 300.86C553.7 303.55 555.77 306.11 558.14 308.39C559.54 309.72 561.05 310.94 562.55 312.16C563.78 313.16 564.97 314.19 565.83 315.53C566.07 315.89 566.12 316.54 565.97 316.96C565.79 317.5 565.07 317.43 564.62 317C563.13 315.56 561.65 314.12 560.11 312.75C558.46 311.28 556.76 309.86 555.07 308.45C553.93 307.5 552.71 306.64 551.6 305.66C550.51 304.69 549.5 303.62 548.45 302.6C548.35 302.5 548.22 302.42 548.02 302.26C547.82 302.99 547.87 303.57 548.34 304.03C549.19 304.86 550.07 305.66 550.97 306.43C552.52 307.77 554.08 309.08 555.65 310.39C556.88 311.41 558.21 312.33 559.36 313.43C560.42 314.44 561.68 315.29 562.44 316.6C562.54 316.77 562.71 316.91 562.85 317.05C563.9 318.13 564.98 319.19 565.99 320.3C566.16 320.49 566.18 320.95 566.08 321.21C566.04 321.34 565.5 321.45 565.29 321.34C563.96 320.65 562.64 319.91 561.34 319.15C560.98 318.94 560.69 318.6 560.38 318.32C559.44 317.45 558.48 316.61 557.58 315.7C556.61 314.73 555.75 313.65 554.78 312.68C553.51 311.42 552.21 310.19 550.85 309.03C550.19 308.47 549.39 308.07 548.63 307.64C548.49 307.56 548.06 307.67 548.05 307.73C548.02 307.99 548 308.37 548.15 308.5C548.76 309.02 549.47 309.43 550.08 309.96C551.34 311.06 552.59 312.16 553.77 313.33C555.36 314.91 556.82 316.61 558.43 318.16C559.33 319.03 560.41 319.71 561.44 320.43C562.49 321.17 563.56 321.86 564.64 322.54C564.94 322.73 565.3 322.83 565.63 322.95C566.03 323.09 566.44 323.33 566.25 323.75C566.14 323.99 565.6 324.24 565.32 324.18C564.51 324.01 563.7 323.75 562.95 323.4C561.71 322.81 560.52 322.12 559.3 321.47C559.2 321.42 559.11 321.36 559.01 321.3C557.77 320.58 556.54 319.85 555.3 319.13C553.9 318.32 552.47 317.55 551.09 316.7C550.08 316.08 549.13 315.35 548.15 314.68C547.8 314.44 547.42 314.25 547.06 314.04C546.62 314.84 546.73 315.18 547.45 315.49C547.69 315.6 547.98 315.68 548.16 315.87C548.79 316.53 549.48 317.04 550.33 317.42C551.3 317.87 552.15 318.58 553.07 319.14C553.94 319.66 554.84 320.14 555.73 320.64C556.76 321.22 557.77 321.84 558.83 322.37C560.55 323.24 562.29 324.07 564.05 324.85C564.93 325.24 565.88 325.48 566.79 325.8C567.25 325.97 567.59 326.2 567.18 326.74L565.82 326.74"/><path fill="#FFFFFF" d="M610.79 281.51C610.37 281.61 609.96 281.69 609.55 281.8C607.22 282.43 604.9 283.08 602.57 283.71C601.68 283.95 600.8 284.2 599.9 284.41C598.94 284.64 597.98 284.91 597.01 285.03C594.08 285.4 591.15 285.71 588.22 286.02C586.73 286.17 585.25 286.3 583.76 286.4C581.38 286.55 578.99 286.67 576.61 286.81C576.13 286.83 575.66 286.93 575.19 286.94C574.43 286.96 574.18 286.66 574.26 285.9C574.36 284.9 575.49 283.79 576.6 283.68C578.51 283.48 580.42 283.31 582.33 283.15C585.53 282.89 588.31 281.73 590.65 279.51C590.92 279.25 591.37 279.19 591.72 278.99C593.4 278.08 595.04 277.09 596.75 276.25C598.08 275.59 599.49 275.11 600.87 274.56C602.75 273.81 604.63 273.04 606.52 272.32C607.93 271.78 609.37 271.29 610.79 270.78L610.79 281.51"/><path fill="#FFFFFF" d="M610.79 301.47C610.49 301.56 610.2 301.69 609.9 301.74C608.64 301.96 607.37 302.08 606.18 302.65C605.55 302.95 604.78 302.94 604.08 303.12C602.21 303.62 600.27 303.96 598.5 304.7C595.95 305.75 593.34 305.72 590.71 305.68C589.06 305.65 587.41 305.38 585.77 305.46C584.04 305.54 582.33 305.89 580.61 306.15C579.26 306.34 577.92 306.66 576.56 306.76C574.59 306.91 573.3 305.15 573.65 303.27C573.9 301.88 574.65 301.15 576.19 300.8C576.82 300.65 577.41 300.35 578.04 300.19C579.13 299.91 580.22 299.56 581.33 299.47C584.59 299.21 587.87 299.09 591.14 298.87C594.65 298.63 598.17 298.4 601.68 298.05C603.21 297.9 604.73 297.49 606.24 297.18C607.76 296.86 609.27 296.51 610.79 296.18L610.79 301.47"/><path fill="#FFFFFF" d="M610.79 269.83C610.57 269.88 610.35 269.91 610.14 269.99C608.45 270.61 606.76 271.24 605.07 271.87C603.02 272.63 600.97 273.37 598.94 274.18C597.25 274.86 595.57 275.58 593.93 276.36C593.17 276.73 592.5 277.28 591.78 277.74C590.53 278.53 589.26 279.32 588 280.11C586.56 281 585.04 281.63 583.33 281.81C581.11 282.03 578.9 282.39 576.67 282.51C575.32 282.58 574.81 282.57 574.79 280.77C574.78 279.89 575.09 279.24 575.61 278.51C576.57 277.15 577.99 276.71 579.37 276.21C581.82 275.32 584.33 274.66 586.91 274.28C588.02 274.11 589.17 274.03 590.24 273.72C591.89 273.26 593.63 273.04 595.03 271.86C596.64 270.49 598.33 269.22 600 267.93C600.82 267.3 601.69 266.73 602.52 266.11C603.76 265.18 604.96 264.21 606.2 263.28C606.98 262.7 607.8 262.18 608.59 261.62C609.33 261.11 610.06 260.57 610.79 260.05L610.79 269.83"/><path fill="#FFFFFF" d="M610.79 294.95C609.56 295.23 608.34 295.54 607.1 295.77C605.75 296.03 604.39 296.24 603.02 296.42C601.35 296.65 599.67 296.83 597.98 297C596.5 297.15 595.01 297.29 593.52 297.37C590.29 297.53 587.04 297.46 583.84 297.86C581.51 298.14 579.09 298.07 576.85 299C576.21 299.26 575.51 299.36 574.83 299.5C573.72 299.74 572.2 298.69 572.13 297.58C572.1 297.21 572.33 296.72 572.61 296.47C573.06 296.05 573.62 295.69 574.2 295.46C575.89 294.8 577.61 294.17 579.34 293.62C581.97 292.78 584.73 292.74 587.45 292.51C590.42 292.25 593.4 292.03 596.36 291.67C598.91 291.37 601.44 290.89 603.98 290.5C605.34 290.3 606.71 290.14 608.07 289.92C608.98 289.77 609.88 289.57 610.79 289.39L610.79 294.95"/><path fill="#FFFFFF" d="M610.79 319.81C609.21 320.25 607.64 320.72 606.05 321.14C605.1 321.39 604.13 321.6 603.15 321.77C600.78 322.19 598.4 322.57 596.02 322.99C593.37 323.46 590.71 323.61 588.03 323.58C585.54 323.56 583.05 323.54 580.56 323.45C579.15 323.39 577.72 323.28 576.34 322.99C575.8 322.87 575.27 322.27 574.95 321.75C574.64 321.26 575.1 320.78 575.52 320.52C576.31 320.02 577.13 319.54 577.98 319.17C578.92 318.76 579.89 318.35 580.89 318.18C582.66 317.87 584.47 317.59 586.26 317.54C589.86 317.44 593.45 317.44 597.03 316.97C598.3 316.8 599.58 316.7 600.85 316.52C601.55 316.42 602.23 316.17 602.93 316.04C605.55 315.56 608.17 315.11 610.79 314.65L610.79 319.81"/><path fill="#FFFFFF" d="M610.79 258.83C608.88 260.19 606.96 261.54 605.06 262.91C603.7 263.9 602.36 264.92 601 265.92C600.29 266.44 599.55 266.91 598.85 267.44C598.03 268.04 597.27 268.72 596.43 269.29C595.11 270.19 593.78 271.11 592.38 271.88C590.47 272.92 588.34 273.21 586.22 273.48C585.34 273.59 584.48 273.76 583.61 273.88C583.43 273.9 583.24 273.82 583.06 273.79C583.17 273.62 583.24 273.42 583.38 273.28C584.43 272.26 585.64 271.44 586.44 270.11C587.49 268.37 588.32 266.52 589.44 264.83C589.71 264.43 589.89 263.93 589.98 263.46C590.12 262.73 590.56 262.25 591.05 261.78C592.03 260.83 593.01 259.87 594 258.93C594.46 258.5 595 258.31 595.66 258.31C600.43 258.34 605.21 258.33 609.98 258.33C610.25 258.33 610.52 258.3 610.79 258.28L610.79 258.83"/><path fill="#FFFFFF" d="M610.79 308.81C609.38 309.12 607.98 309.44 606.57 309.73C605.95 309.86 605.32 309.94 604.7 310.03C603.43 310.21 602.16 310.43 600.89 310.58C599.07 310.78 597.25 311.02 595.42 311.09C591.76 311.23 588.1 311.28 584.43 311.36C582.72 311.41 581 311.41 579.29 311.53C578.66 311.57 578.05 311.93 577.42 312.1C576.69 312.3 575.44 311.81 575.18 311.13C575.07 310.83 575.21 310.32 575.43 310.05C576.23 309.02 577.39 308.5 578.58 308.04C581.03 307.09 583.56 306.58 586.19 306.64C588.95 306.71 591.71 306.84 594.47 306.8C596.06 306.78 597.68 306.69 599.16 305.91C599.64 305.66 600.17 305.52 600.69 305.37C603.28 304.6 605.86 303.83 608.46 303.1C609.22 302.89 610.01 302.83 610.79 302.7L610.79 308.81"/><path fill="#FFFFFF" d="M610.79 288.03C610 288.2 609.21 288.38 608.41 288.53C606.5 288.89 604.59 289.34 602.66 289.56C598.89 289.98 595.1 290.26 591.32 290.6C589.7 290.74 588.07 290.81 586.47 291.05C584.31 291.38 582.17 291.83 580.02 292.25C578.65 292.53 577.29 292.85 575.93 293.17C575.6 293.25 575.3 293.44 574.98 293.49C574.55 293.55 574.06 293.65 573.7 293.49C573.27 293.29 573.04 292.86 573.12 292.25C573.35 290.23 574.42 288.8 576.19 287.93C576.78 287.64 577.56 287.66 578.25 287.66C579.76 287.65 581.28 287.79 582.79 287.73C585.97 287.61 589.15 287.42 592.33 287.21C593.5 287.13 594.67 286.99 595.81 286.76C597.15 286.5 598.47 286.09 599.8 285.77C601.46 285.37 603.14 285.02 604.8 284.6C605.67 284.38 606.52 284.06 607.37 283.79C608.51 283.43 609.65 283.08 610.79 282.73L610.79 288.03"/><path fill="#FFFFFF" d="M610.79 313.15C609.1 313.43 607.36 313.53 605.74 314.04C603.5 314.73 601.18 314.66 598.93 315.12C597.63 315.39 596.27 315.36 594.94 315.44C590.63 315.72 586.32 315.95 582.02 316.3C580.81 316.4 579.62 316.81 578.42 317.1C577.59 317.31 576.79 317.65 575.95 317.77C575.57 317.82 575.03 317.59 574.77 317.29C574.43 316.91 574.07 316.45 574.46 315.78C575.07 314.72 576.14 314.36 577.1 313.86C578.64 313.08 580.34 312.93 582.05 312.9C583.59 312.88 585.13 312.92 586.67 312.87C590.26 312.76 593.86 312.63 597.45 312.46C598.84 312.4 600.24 312.27 601.62 312.05C603.52 311.76 605.39 311.35 607.27 310.99C608.44 310.76 609.62 310.53 610.79 310.3L610.79 313.15"/><path fill="#FFFFFF" d="M576.55 326.74C576.57 325.2 577.04 324.69 578.61 324.73C580.19 324.77 581.77 324.95 583.35 325.01C584.63 325.06 585.92 325.03 587.21 325.03C587.52 325.03 587.84 325 588.16 324.98C591.38 324.76 594.61 324.6 597.82 324.3C599.45 324.15 601.07 323.8 602.68 323.46C604.61 323.04 606.53 322.55 608.45 322.07C609.23 321.88 610.01 321.65 610.79 321.44L610.79 326.74L576.55 326.74"/><path fill="#FFFFFF" d="M550.06 326.74C549.13 326.26 548.22 325.76 547.29 325.32C546.71 325.04 546.37 324.71 546.41 323.99C546.48 322.77 546.43 321.54 546.43 320.32C546.43 320.11 546.46 319.89 546.48 319.51C547.31 320.16 548.01 320.74 548.75 321.26C549.52 321.8 550.32 322.32 551.14 322.78C552.8 323.71 554.47 324.63 556.17 325.47C557.07 325.91 558.06 326.17 559.01 326.51C559.2 326.58 559.38 326.66 559.57 326.74L550.06 326.74"/><path fill="#FFFFFF" d="M546.39 326.74C546.42 326.32 546.62 326.12 547.04 326.24C547.6 326.39 548.15 326.57 548.7 326.74L546.39 326.74"/><path fill="#FFFFFF" d="M547.93 268.58C548.03 268.57 548.13 268.56 548.23 268.55C548.18 268.21 548.12 267.87 548.07 267.52L547.82 267.56L547.93 268.58M546.49 258.32C547.37 258.32 548.18 258.3 548.99 258.34C549.19 258.35 549.49 258.52 549.55 258.68C550.05 260.13 550.54 261.58 550.98 263.05C551.41 264.49 551.79 265.95 552.17 267.41C552.35 268.09 552.47 268.78 552.64 269.46C553.13 271.36 553.54 273.28 554.15 275.14C554.93 277.46 555.89 279.72 556.75 282.02C556.94 282.55 557.05 283.12 557.11 283.67C557.38 285.92 558.33 287.9 559.41 289.84C559.86 290.64 560.25 291.48 560.73 292.26C561.22 293.04 561.76 293.78 562.33 294.51C563.28 295.73 564.27 296.92 565.25 298.13C565.42 298.34 565.56 298.58 565.77 298.75C566.46 299.31 566.43 300.06 566.32 300.8C566.25 301.33 565.67 301.55 565.23 301.2C564.42 300.55 563.64 299.87 562.91 299.14C560.82 297.03 559.32 294.49 557.91 291.93C557.12 290.48 556.55 288.91 555.93 287.37C555.53 286.37 555.25 285.33 554.87 284.33C554.55 283.47 554.17 282.63 553.8 281.79C553.76 281.7 553.64 281.66 553.36 281.63C553.39 281.93 553.39 282.23 553.47 282.52C553.64 283.14 553.85 283.76 554.08 284.37C554.22 284.77 554.47 285.12 554.62 285.52C555.17 287.02 555.6 288.58 556.26 290.03C557.11 291.88 558.08 293.69 559.11 295.45C559.82 296.69 560.65 297.88 561.55 298.99C562.45 300.08 563.51 301.03 564.5 302.04C565.04 302.58 565.61 303.1 566.11 303.68C566.44 304.07 566.35 304.45 565.92 304.78C565.45 305.14 565.35 304.72 565.15 304.48C564.4 303.57 563.67 302.66 562.91 301.77C561.77 300.43 560.55 299.16 559.47 297.78C558.13 296.09 556.78 294.38 555.64 292.56C554.39 290.55 553.41 288.38 552.8 286.07C552.67 285.57 552.46 285.09 552.3 284.6C551.44 281.78 550.74 278.92 550.3 275.99C550.17 275.14 549.81 274.31 549.56 273.47C549.5 273.28 549.44 273.09 549.4 272.89C549.18 271.83 548.98 270.78 548.75 269.72C548.71 269.52 548.58 269.34 548.34 269.19C548.34 269.62 548.28 270.06 548.35 270.49C548.57 271.77 548.83 273.04 549.09 274.32C549.37 275.73 549.69 277.13 549.98 278.54C550.14 279.31 550.28 280.09 550.44 280.86C550.72 282.16 550.9 283.5 551.33 284.74C552.18 287.19 553.1 289.62 554.15 291.99C554.77 293.38 555.62 294.69 556.53 295.91C557.56 297.3 558.78 298.54 559.91 299.86C561.38 301.56 562.88 303.25 564.3 304.99C565.2 306.09 565.96 307.29 566.79 308.45C566.83 308.5 566.87 308.56 566.89 308.62C567.09 309.13 567.21 309.64 566.75 310.06C566.44 310.35 565.65 310.19 565.27 309.78C565.1 309.6 564.98 309.38 564.84 309.17C563.76 307.68 562.72 306.16 561.61 304.7C560.11 302.73 558.57 300.81 557.03 298.88C556.02 297.61 554.89 296.43 553.96 295.11C552.74 293.39 551.6 291.63 550.68 289.72C549.69 287.65 548.79 285.59 548.19 283.38C547.9 282.3 547.36 281.29 547 280.23C546.76 279.53 546.47 278.79 546.47 278.07C546.42 271.6 546.44 265.13 546.44 258.66C546.44 258.57 546.46 258.48 546.49 258.32"/><path fill="#FFFFFF" d="M564.24 269.08C564.33 269.51 564.42 269.94 564.5 270.37C564.86 272.16 565.24 273.95 565.58 275.74C565.99 277.88 566.32 280.05 566.79 282.18C567.16 283.87 567.62 285.56 568.17 287.2C568.44 288.01 568.98 288.75 569.48 289.46C569.89 290.06 569.71 290.61 569.43 291.11C569.31 291.34 568.91 291.46 568.61 291.54C568.48 291.57 568.2 291.41 568.13 291.27C567.52 289.96 566.88 288.65 566.36 287.29C565.8 285.8 565.3 284.28 564.87 282.75C564.6 281.73 564.52 280.67 564.32 279.63C563.99 277.91 563.63 276.19 563.27 274.48C562.9 272.71 562.52 270.95 562.13 269.18C562.03 268.75 561.83 268.33 561.73 267.9C561.27 266.01 561.61 264.18 562.09 262.35C562.37 261.28 562.56 260.19 562.77 259.1C562.88 258.51 563.16 258.29 563.78 258.31C565.21 258.36 566.63 258.34 568.06 258.32C568.49 258.31 568.69 258.46 568.71 258.88C568.72 259.24 568.78 259.6 568.79 259.96C568.88 261.86 568.97 263.76 569.02 265.65C569.07 267.01 569.02 268.36 569.09 269.71C569.23 272.47 569.39 275.22 569.62 277.96C569.79 279.9 570.07 281.82 570.32 283.74C570.43 284.65 570.59 285.55 570.71 286.45C570.78 287 570.52 287.4 570.01 287.55C569.58 287.68 568.98 287.18 568.84 286.65C568.32 284.65 567.72 282.66 567.28 280.64C566.85 278.7 566.65 276.72 566.22 274.78C565.82 272.96 565.25 271.18 564.74 269.39C564.69 269.23 564.53 269.11 564.42 268.97C564.36 269.01 564.3 269.04 564.24 269.08"/><path fill="#FFFFFF" d="M554.11 258.33C555.07 258.33 556.02 258.32 556.97 258.33C557.76 258.33 557.83 258.4 557.75 259.18C557.55 261.31 557.38 263.45 557.13 265.59C556.85 267.9 556.92 270.2 557.34 272.47C557.66 274.24 558.2 275.96 558.71 277.69C558.9 278.33 559.34 278.88 559.57 279.51C560.14 281.1 560.62 282.72 561.2 284.3C561.77 285.89 562.4 287.46 563.04 289.03C563.69 290.62 564.73 291.94 565.9 293.17C566.28 293.56 566.67 293.94 567.02 294.35C567.47 294.89 567.5 295.95 567.11 296.52C566.71 297.11 565.79 297.14 565.26 296.59C565.04 296.36 564.83 296.12 564.65 295.86C562.85 293.23 560.82 290.72 559.58 287.76C558.83 285.96 558.33 284.05 557.71 282.19C557.35 281.12 556.98 280.06 556.62 278.99C556.27 277.92 555.92 276.85 555.56 275.78C555.01 274.14 554.4 272.52 553.94 270.86C553.43 269.03 553.09 267.16 552.6 265.32C552.35 264.37 551.92 263.47 551.62 262.53C551.22 261.28 550.88 260.02 550.52 258.76C550.4 258.34 550.69 258.33 550.99 258.33C552.03 258.33 553.07 258.33 554.11 258.33L554.11 258.33"/><path fill="#FFFFFF" d="M546.53 281.61C546.75 282.2 546.97 282.76 547.17 283.33C547.84 285.24 548.36 287.22 549.21 289.04C550.06 290.86 550.82 292.76 552.22 294.28C552.62 294.71 552.88 295.25 553.24 295.71C553.71 296.31 554.23 296.87 554.71 297.47C555.43 298.39 556.12 299.33 556.83 300.26C557.93 301.7 559.03 303.12 560.12 304.56C561.35 306.19 562.53 307.86 563.81 309.45C564.55 310.38 565.45 311.18 566.28 312.05C566.55 312.33 566.93 312.59 566.51 313.07C566.12 313.51 565.71 313.45 565.32 313.13C564.74 312.66 564.18 312.16 563.63 311.66C562.17 310.32 560.71 308.97 559.24 307.64C558.34 306.83 557.33 306.12 556.54 305.22C555.08 303.54 553.69 301.8 552.38 300C551.18 298.35 550.12 296.61 549.02 294.89C548.71 294.39 548.5 293.84 548.22 293.32C547.7 292.32 547.16 291.34 546.64 290.34C546.54 290.14 546.46 289.91 546.46 289.7C546.45 287.05 546.45 284.4 546.45 281.76C546.45 281.72 546.49 281.69 546.53 281.61"/><path fill="#FFFFFF" d="M560.26 258.33C560.37 258.33 560.48 258.33 560.6 258.33C562.01 258.33 562.07 258.4 561.67 259.84C561.35 261 561.02 262.15 560.72 263.3C560.18 265.41 560.25 267.53 560.77 269.62C561.17 271.2 561.71 272.75 562.19 274.31C562.25 274.5 562.25 274.71 562.28 274.91C562.51 276.31 562.74 277.71 562.97 279.11C563.06 279.67 563.11 280.24 563.25 280.78C563.82 282.96 564.36 285.15 565.03 287.3C565.31 288.22 565.87 289.07 566.29 289.95C566.66 290.73 567.01 291.5 567.35 292.29C567.39 292.4 567.29 292.56 567.26 292.7C567.12 292.66 566.95 292.65 566.84 292.57C565.94 291.95 565.35 291.07 564.86 290.12C564.16 288.74 563.4 287.4 562.98 285.88C562.6 284.54 562.11 283.24 561.62 281.94C561.11 280.58 560.52 279.26 559.98 277.91C559.85 277.58 559.79 277.22 559.67 276.88C559.26 275.7 558.71 274.56 558.45 273.34C557.75 270.11 557.81 266.85 558.29 263.58C558.49 262.15 558.53 260.69 558.61 259.25C558.66 258.33 558.63 258.33 559.58 258.33C559.8 258.33 560.03 258.33 560.26 258.33"/><path fill="#FFFFFF" d="M584.21 258.34C583.96 258.81 583.8 259.12 583.64 259.43C583.22 260.3 582.79 261.18 582.38 262.05C581.97 262.92 581.52 263.78 581.2 264.68C580.72 266.03 580.41 267.45 579.91 268.8C579.11 270.95 578.6 273.28 576.66 274.82C576.44 274.99 576.12 275.22 575.93 275.16C575.74 275.1 575.55 274.72 575.53 274.47C575.5 273.94 575.63 273.4 575.61 272.86C575.59 271.66 575.58 270.46 575.45 269.28C575.29 267.82 575.26 266.39 575.62 264.97C575.79 264.32 576.04 263.69 576.29 263.06C576.84 261.61 577.4 260.17 577.99 258.73C578.06 258.56 578.3 258.35 578.46 258.35C580.31 258.33 582.16 258.34 584.21 258.34"/><path fill="#FFFFFF" d="M579.17 273.66C580.36 272.04 580.95 270.31 581.38 268.51C581.49 268.05 581.65 267.6 581.81 267.16C582.5 265.23 583.16 263.29 583.91 261.39C584.26 260.49 584.75 259.65 585.24 258.81C585.36 258.59 585.68 258.36 585.91 258.35C588.15 258.32 590.39 258.33 592.82 258.33C592.32 258.84 592 259.35 591.54 259.58C590.49 260.12 590.07 261.19 589.32 261.97C588.25 263.09 587.9 264.56 587.39 265.94C587.24 266.34 587.02 266.72 586.78 267.07C585.93 268.26 585.07 269.44 584.2 270.61C583.29 271.84 582 272.62 580.78 273.46C580.33 273.76 579.82 274.05 579.17 273.66"/><path fill="#FFFFFF" d="M573.16 258.33C573.16 261.37 573.17 264.31 573.15 267.24C573.14 268.89 573.2 270.56 573 272.19C572.82 273.64 572.32 275.05 571.95 276.48C571.86 276.83 571.77 277.18 571.65 277.52C571.59 277.67 571.4 277.9 571.34 277.88C571.18 277.83 570.97 277.69 570.91 277.54C570.81 277.25 570.78 276.92 570.76 276.61C570.59 274.02 570.43 271.44 570.28 268.86C570.14 266.54 570.01 264.21 569.89 261.89C569.84 260.94 569.83 259.99 569.78 259.04C569.75 258.54 569.92 258.29 570.47 258.32C571.35 258.35 572.23 258.33 573.16 258.33"/><path fill="#FFFFFF" d="M576.56 258.33C576.26 259.18 576.02 259.91 575.74 260.63C575.68 260.8 575.47 260.92 575.33 261.06C575.2 260.89 574.96 260.73 574.96 260.57C574.96 259.92 575.02 259.27 575.12 258.63C575.15 258.5 575.45 258.38 575.64 258.34C575.9 258.29 576.18 258.33 576.56 258.33"/></g></svg>